<?xml version="1.0"?>
<svg width="24" height="24" xmlns="http://www.w3.org/2000/svg" xmlns:svg="http://www.w3.org/2000/svg">
 <g class="layer">
  <title>Layer 1</title>
  <path d="m21,20l0,-14c0,-1.1 -0.9,-2 -2,-2l-2,0l0,-2l-2,0l0,2l-6,0l0,-2l-2,0l0,2l-2,0c-1.1,0 -2,0.9 -2,2l0,14c0,1.1 0.9,2 2,2l14,0c1.1,0 2,-0.9 2,-2zm-12,-2l-2,0l0,-2l2,0l0,2zm0,-4l-2,0l0,-2l2,0l0,2zm4,4l-2,0l0,-2l2,0l0,2zm0,-4l-2,0l0,-2l2,0l0,2zm4,4l-2,0l0,-2l2,0l0,2zm0,-4l-2,0l0,-2l2,0l0,2zm2,-5l-14,0l0,-2l14,0l0,2z" fill="#015958" id="svg_1"/>
 </g>
</svg>