<?xml version="1.0"?>
<svg width="24.000000000000004" height="24.000000000000004" xmlns="http://www.w3.org/2000/svg" xmlns:svg="http://www.w3.org/2000/svg">
 <g class="layer">
  <title>Layer 1</title>
  <path d="m12,14c2.21,0 4,-1.79 4,-4s-1.79,-4 -4,-4s-4,1.79 -4,4s1.79,4 4,4zm0,-6c1.1,0 2,0.9 2,2s-0.9,2 -2,2s-2,-0.9 -2,-2s0.9,-2 2,-2z" fill="#015958" id="svg_1"/>
  <path d="m11.42,21.81a1,1 0 0 0 1.16,0c0.3,-0.21 7.45,-5.37 7.42,-11.81c0,-4.41 -3.59,-8 -8,-8s-8,3.59 -8,7.99c-0.03,6.45 7.12,11.61 7.42,11.82zm0.58,-17.81c3.31,0 6,2.69 6,6c0.02,4.44 -4.39,8.43 -6,9.73c-1.61,-1.3 -6.02,-5.29 -6,-9.73c0,-3.31 2.69,-6 6,-6z" fill="#015958" id="svg_2" transform="matrix(1 0 0 1 0 0)"/>
 </g>
</svg>